<svg width="255" height="254" viewBox="0 0 255 254" fill="none" xmlns="http://www.w3.org/2000/svg">
<path fill-rule="evenodd" clip-rule="evenodd" d="M112.517 100.648C117.893 96.3816 124.036 93.1843 130.614 91.2284C137.198 89.0948 144.166 88.4089 151.04 89.2176C151.493 89.3254 151.963 89.3388 152.421 89.2567C152.879 89.1747 153.316 88.9991 153.703 88.7409C154.09 88.4827 154.42 88.1474 154.672 87.756C154.924 87.3646 155.093 86.9254 155.167 86.4659C155.275 85.9991 155.285 85.5151 155.198 85.0441C155.11 84.5732 154.927 84.1252 154.659 83.7282C154.391 83.3311 154.044 82.9934 153.64 82.7361C153.236 82.4788 152.783 82.3074 152.31 82.2326C144.422 80.5921 136.28 80.5921 128.392 82.2326C120.402 83.81 112.765 86.822 105.849 91.1226C102.963 92.6055 100.424 94.6833 98.3988 97.219C96.3739 99.7546 94.9094 102.691 94.1017 105.833C93.8179 108.355 94.119 110.908 94.9816 113.294C95.8443 115.68 97.2453 117.835 99.0758 119.592C101.407 122.207 104.237 124.33 107.399 125.838C110.561 127.347 113.992 128.209 117.491 128.376C124.346 128.505 131.175 127.504 137.705 125.413C142.731 123.656 148.052 122.901 153.368 123.19C162.047 124.566 171.254 129.964 180.356 131.763C185.085 132.878 190.031 132.658 194.643 131.128C195.668 130.819 196.528 130.116 197.034 129.173C197.54 128.23 197.651 127.125 197.342 126.101C197.033 125.076 196.33 124.216 195.387 123.71C194.444 123.204 193.339 123.093 192.315 123.402C189.053 124.249 185.628 124.249 182.366 123.402C173.265 120.862 164.269 114.512 155.591 112.818C148.564 111.546 141.345 111.799 134.424 113.559C129.118 115.029 123.631 115.742 118.126 115.676C114.501 115.458 111.096 113.869 108.601 111.231C107.331 109.855 106.484 109.008 106.907 107.95C107.891 104.948 109.87 102.372 112.517 100.648Z" fill="#020202"/>
<path fill-rule="evenodd" clip-rule="evenodd" d="M236.025 86.3601C224.7 81.5976 214.858 75.7768 203.745 70.3792C196.421 66.6506 188.768 63.6039 180.885 61.2776C167.618 57.5971 153.693 56.946 140.139 59.3726C142.079 52.0493 143.424 44.5814 144.161 37.0417C144.79 30.4372 144.505 23.7775 143.314 17.2509C140.669 4.65667 133.895 0 127.969 0C124.016 0.370664 120.217 1.71497 116.911 3.91272C113.605 6.11048 110.896 9.09319 109.024 12.5942L101.51 25.8234C96.286 37.5628 91.797 49.6158 88.0693 61.9126C88.0693 61.9126 87.1168 61.9126 86.7993 61.9126C77.6185 67.9673 69.65 75.6846 63.3043 84.6668C60.0133 88.9681 57.1427 93.5754 54.7318 98.4251C52.2693 103.364 50.3189 108.541 48.9109 113.877C47.8362 117.857 47.5917 122.015 48.1925 126.093C48.7934 130.172 50.2267 134.083 52.4034 137.583C54.51 140.383 57.6339 142.242 61.0997 142.757C64.5655 143.272 68.0947 142.402 70.9243 140.335C67.7832 153.308 66.0096 166.574 65.6326 179.917C65.7239 181.56 65.972 183.19 66.3735 184.785C66.7058 186.487 67.202 188.153 67.8551 189.759C69.4423 193.491 71.4295 197.04 73.7818 200.343C75.1576 203.624 82.566 205.529 95.6893 193.358C97.0671 192.085 98.3412 190.705 99.4994 189.23C100.677 187.763 101.739 186.206 102.674 184.574C104.495 180.815 106.12 176.964 107.543 173.038C111.414 176.385 115.861 179.003 120.666 180.764C123.489 181.812 126.447 182.453 129.45 182.669C134.04 182.99 138.651 182.561 143.103 181.399C144.055 181.399 144.796 180.234 145.749 179.811C153.382 184.717 162.188 187.494 171.254 187.854C177.56 187.788 183.841 187.043 189.987 185.632C198.471 183.36 207.098 181.663 215.81 180.552C216.877 180.552 217.9 180.128 218.654 179.374C219.408 178.62 219.832 177.597 219.832 176.53C219.832 175.464 219.408 174.441 218.654 173.686C217.9 172.932 216.877 172.509 215.81 172.509C205.228 171.731 194.595 171.979 184.06 173.249L172.101 174.414H164.481C160.921 174.421 157.371 174.031 153.898 173.249C155.131 171.964 156.166 170.501 156.967 168.91C158.357 165.935 158.618 162.556 157.703 159.402C156.788 156.249 154.759 153.535 151.993 151.765C151.993 151.765 151.04 151.765 150.511 151.765C152.938 150.161 155.008 148.074 156.592 145.634C158.177 143.194 159.241 140.453 159.719 137.583C160.137 134.914 159.722 132.18 158.528 129.755C157.335 127.331 155.422 125.334 153.051 124.037C152.192 123.494 151.159 123.297 150.16 123.484C149.161 123.672 148.27 124.231 147.667 125.049C147.063 125.867 146.792 126.883 146.907 127.893C147.023 128.903 147.516 129.832 148.289 130.493C148.985 131.114 149.479 131.931 149.705 132.837C149.932 133.743 149.881 134.696 149.559 135.573C148.86 137.081 147.815 138.404 146.51 139.434C145.204 140.464 143.674 141.171 142.044 141.499C139.457 141.986 136.801 141.986 134.213 141.499L127.863 140.864C124.76 140.403 121.686 139.767 118.655 138.959V133.138C118.892 132.672 119.025 132.159 119.043 131.637C119.062 131.114 118.966 130.593 118.763 130.111C118.56 129.629 118.254 129.197 117.866 128.845C117.479 128.493 117.02 128.23 116.52 128.074C116.021 127.918 115.494 127.873 114.975 127.941C114.456 128.01 113.959 128.191 113.517 128.472C113.076 128.752 112.701 129.126 112.418 129.566C112.136 130.007 111.953 130.503 111.882 131.022C110.824 132.927 104.05 146.262 103.521 147.955C103.021 149.764 102.633 151.602 102.357 153.459C102.305 154.234 102.305 155.012 102.357 155.787C99.6052 154.623 97.2769 153.247 94.5252 152.189C93.3826 151.643 92.1726 151.251 90.9268 151.024C89.7448 150.745 88.5409 150.568 87.3285 150.495C84.0477 150.495 81.296 151.13 78.121 151.342H77.486C83.201 129.011 89.0218 105.728 95.6893 82.8676C100.381 65.4101 106.359 48.3241 113.575 31.75L119.502 19.5792C121.936 15.4517 124.476 12.1708 127.439 12.065C130.403 11.9592 131.355 14.9225 132.625 19.8967C133.998 25.4308 134.569 31.1336 134.319 36.83C133.958 45.8132 132.753 54.7425 130.72 63.5001C130.494 64.5369 130.675 65.6212 131.227 66.5278C131.779 67.4344 132.658 68.0936 133.684 68.3684C134.524 68.5259 135.392 68.4042 136.156 68.022C136.921 67.6399 137.539 67.0182 137.917 66.2517C138.363 66.405 138.847 66.405 139.293 66.2517C148.919 66.2754 158.484 67.7745 167.656 70.6967C171.043 71.7551 174.429 73.0251 177.71 74.1893C182.896 75.9884 188.294 77.9993 193.056 79.9043C206.18 84.8784 219.409 89.9584 233.379 93.7684C234.404 94.1072 235.52 94.0311 236.49 93.5563C237.459 93.0815 238.204 92.2458 238.565 91.2284C238.864 90.246 238.766 89.1851 238.291 88.2745C237.816 87.3638 237.002 86.6763 236.025 86.3601ZM71.2418 127C69.9571 128.555 68.3261 129.787 66.4793 130.598C65.2832 131.035 63.9712 131.035 62.7751 130.598C61.9285 130.598 61.9285 129.223 61.611 128.27C60.4524 124.512 60.4524 120.492 61.611 116.734C63.1654 111.295 65.1471 105.987 67.5376 100.859C69.8575 95.5626 72.5451 90.4348 75.581 85.5134C78.1269 81.8017 80.9202 78.2659 83.9418 74.9301C83.9418 76.8351 82.7777 78.5284 82.2485 80.4334C78.756 94.5093 76.0043 108.903 73.5701 122.767C73.041 124.248 72.3001 125.624 71.2418 127ZM127.969 154.517C133.466 156.102 139.299 156.102 144.796 154.517C144.533 155.248 144.492 156.041 144.681 156.795C144.869 157.548 145.278 158.229 145.854 158.75C146.586 159.626 146.987 160.731 146.987 161.872C146.987 163.014 146.586 164.119 145.854 164.994C145.063 166.043 144.061 166.914 142.912 167.552C141.764 168.189 140.495 168.58 139.187 168.699C135.992 169.405 132.719 169.689 129.45 169.545C125.906 169.712 122.354 169.463 118.867 168.804C115.545 168.088 112.339 166.912 109.342 165.312C110.718 162.772 112.094 160.338 113.258 157.798C114.066 156.089 114.738 154.32 115.269 152.506C115.53 151.601 115.742 150.682 115.904 149.754C119.715 151.831 123.767 153.43 127.969 154.517ZM76.0043 158.75C78.5942 160.607 81.3181 162.27 84.1535 163.724C85.3327 164.271 86.5778 164.662 87.8577 164.889C89.1607 164.997 90.4705 164.997 91.7735 164.889C94.8533 164.799 97.9266 164.552 100.981 164.148V166.582C100.655 167.434 100.655 168.376 100.981 169.228C97.4933 171.956 94.1713 174.889 91.0327 178.012C89.2565 180.18 87.5961 182.441 86.0585 184.785C84.2593 187.537 82.6718 190.394 80.9785 193.146C80.9785 190.677 80.7668 188.242 80.3435 185.844C80.1096 183.268 79.6492 180.718 78.9676 178.224C77.4875 174.01 75.4972 169.994 73.041 166.264C73.041 166.264 73.676 165.524 73.7818 165.1C74.4168 162.772 75.0518 160.338 75.581 158.009C75.6868 158.75 75.7926 158.75 76.0043 158.75Z" fill="#020202"/>
<path fill-rule="evenodd" clip-rule="evenodd" d="M116.115 226.695C104.229 222.056 91.2546 220.953 78.756 223.52L66.2676 226.695L52.8267 228.6C50.0598 228.709 47.2895 228.496 44.5717 227.965C42.0251 227.431 39.5666 226.541 37.2692 225.319C32.93 223.097 29.9667 220.451 29.4375 217.17C29.2256 215.131 29.5657 213.074 30.4222 211.212C31.2787 209.35 32.6201 207.752 34.3059 206.587C38.3319 203.121 43.0095 200.495 48.0642 198.861C53.3676 197.19 58.9097 196.404 64.4684 196.532C65.3037 196.388 66.061 195.953 66.6068 195.304C67.1526 194.655 67.4519 193.835 67.4519 192.987C67.4519 192.139 67.1526 191.319 66.6068 190.67C66.061 190.022 65.3037 189.586 64.4684 189.442C58.2084 188.766 51.8799 189.123 45.7359 190.5C39.2666 191.911 33.1478 194.611 27.7442 198.437C24.3426 200.51 21.5636 203.462 19.7008 206.983C17.838 210.504 16.9605 214.462 17.1608 218.44C17.7343 222.426 19.2796 226.21 21.6604 229.459C24.0413 232.707 27.1846 235.32 30.8133 237.067C34.098 238.999 37.6711 240.393 41.3967 241.194C45.1513 241.993 48.9918 242.313 52.8267 242.147C55.6306 242.069 58.4251 241.786 61.1876 241.3C63.8334 241.3 66.4793 240.242 69.1251 239.607L81.8251 235.479C91.4881 232.566 101.796 232.566 111.459 235.479C113.152 236.22 114.739 236.961 115.163 238.548C115.586 240.136 115.163 243.628 112.094 247.438C111.774 247.862 111.541 248.345 111.408 248.859C111.275 249.373 111.244 249.908 111.318 250.434C111.391 250.96 111.568 251.466 111.837 251.923C112.107 252.381 112.463 252.781 112.887 253.101C113.311 253.42 113.794 253.653 114.308 253.786C114.822 253.919 115.357 253.95 115.883 253.876C116.945 253.727 117.904 253.163 118.549 252.307C120.631 250.225 122.202 247.689 123.138 244.898C124.075 242.106 124.351 239.136 123.947 236.22C123.396 234.166 122.412 232.253 121.061 230.611C119.71 228.968 118.024 227.633 116.115 226.695Z" fill="#0C6FFF"/>
</svg>
