<svg width="244" height="235" viewBox="0 0 244 235" fill="none" xmlns="http://www.w3.org/2000/svg">
<rect width="244" height="235" rx="15" fill="#6C6363"/>
<path d="M13.95 170L55.225 69.25H55.4417L96.7167 170H83.6083L72.125 141.075H38L26.4083 170H13.95ZM42.1167 130.783H68.0083L60.3167 111.5C59.3778 109.044 58.475 106.625 57.6083 104.242C56.7417 101.858 55.875 99.0056 55.0083 95.6833C54.1417 99.0056 53.3111 101.858 52.5167 104.242C51.7222 106.553 50.8194 108.972 49.8083 111.5L42.1167 130.783ZM122.249 171.3C118.783 171.3 115.352 170.758 111.958 169.675C108.563 168.592 105.638 166.75 103.183 164.15L106.758 151.15C108.419 153.967 110.549 156.206 113.149 157.867C115.822 159.456 118.819 160.25 122.141 160.25C125.969 160.25 129.291 158.914 132.108 156.242C134.924 153.569 136.333 148.911 136.333 142.267V72.5H148.683V143.242C148.683 149.669 147.455 154.978 144.999 159.167C142.544 163.283 139.294 166.353 135.249 168.375C131.277 170.325 126.944 171.3 122.249 171.3ZM195.049 171.3C189.272 171.3 184.036 170.144 179.341 167.833C174.719 165.522 171.036 162.706 168.291 159.383L171.866 144.433C173.888 148.478 176.922 152.125 180.966 155.375C185.011 158.625 189.849 160.25 195.483 160.25C200.611 160.25 204.836 158.625 208.158 155.375C211.552 152.125 213.249 148.117 213.249 143.35C213.249 139.883 212.419 137.031 210.758 134.792C209.097 132.553 207.219 130.783 205.124 129.483C203.03 128.183 201.369 127.244 200.141 126.667L188.224 120.6C186.347 119.589 183.999 118.181 181.183 116.375C178.438 114.569 176.019 112.078 173.924 108.9C171.83 105.722 170.783 101.606 170.783 96.55C170.783 91.6389 171.902 87.2694 174.141 83.4417C176.452 79.6139 179.63 76.6167 183.674 74.45C187.791 72.2833 192.486 71.2 197.758 71.2C202.958 71.2 207.544 72.1389 211.516 74.0167C215.488 75.8222 218.594 77.7 220.833 79.65L217.258 94.6C215.452 91.5667 212.78 88.7139 209.241 86.0417C205.702 83.3694 201.694 82.0333 197.216 82.0333C192.883 82.0333 189.416 83.3333 186.816 85.9333C184.216 88.4611 182.916 91.6028 182.916 95.3583C182.916 98.2472 183.566 100.631 184.866 102.508C186.238 104.386 187.755 105.867 189.416 106.95C191.149 108.033 192.558 108.864 193.641 109.442L205.774 115.508C207.219 116.231 209.024 117.242 211.191 118.542C213.43 119.842 215.633 121.575 217.799 123.742C219.966 125.836 221.772 128.436 223.216 131.542C224.661 134.575 225.383 138.258 225.383 142.592C225.383 148.153 224.047 153.1 221.374 157.433C218.774 161.767 215.199 165.161 210.649 167.617C206.099 170.072 200.899 171.3 195.049 171.3Z" fill="white"/>
</svg>
